<svg width="152" height="19" viewBox="0 0 152 19" fill="none" xmlns="http://www.w3.org/2000/svg">
<path d="M14.3933 14H9.63328L9.03328 11.48H5.47328L4.85328 14H0.213284L4.49328 0.799999H10.0933L14.3933 14ZM6.17328 8.58H8.35328L7.27328 4L6.17328 8.58ZM22.5823 0.6C23.849 0.6 24.9823 0.76 25.9823 1.08C26.9957 1.38667 27.889 1.85333 28.6623 2.48L26.7823 5.48C26.1557 5.04 25.4957 4.68667 24.8023 4.42C24.1223 4.15333 23.3823 4.02 22.5823 4.02C22.2357 4.02 21.9557 4.04667 21.7423 4.1C21.5423 4.15333 21.3957 4.22667 21.3023 4.32C21.2223 4.41333 21.1823 4.52 21.1823 4.64C21.1823 4.8 21.3023 4.92 21.5423 5C21.7957 5.08 22.109 5.16667 22.4823 5.26L24.3023 5.68C25.649 5.98667 26.6623 6.44 27.3423 7.04C28.0357 7.64 28.3823 8.47333 28.3823 9.54C28.3823 10.6067 28.1223 11.4867 27.6023 12.18C27.0823 12.86 26.3757 13.3667 25.4823 13.7C24.6023 14.0333 23.6023 14.2 22.4823 14.2C21.6423 14.2 20.8023 14.1267 19.9623 13.98C19.1223 13.82 18.3423 13.5933 17.6223 13.3C16.9023 12.9933 16.2823 12.6267 15.7623 12.2L17.6023 9.14C17.989 9.44667 18.4557 9.72667 19.0023 9.98C19.549 10.22 20.1157 10.4133 20.7023 10.56C21.289 10.7067 21.8357 10.78 22.3423 10.78C22.6623 10.78 22.9157 10.7533 23.1023 10.7C23.289 10.6467 23.4157 10.58 23.4823 10.5C23.5623 10.4067 23.6023 10.3 23.6023 10.18C23.6023 9.99333 23.5223 9.85333 23.3623 9.76C23.2157 9.66667 22.9423 9.57333 22.5423 9.48L20.5423 9.04C19.8357 8.88 19.1623 8.66667 18.5223 8.4C17.8823 8.13333 17.3623 7.74667 16.9623 7.24C16.5623 6.72 16.3623 6.02 16.3623 5.14C16.3623 4.23333 16.6023 3.44 17.0823 2.76C17.5757 2.08 18.2823 1.55333 19.2023 1.18C20.1357 0.793333 21.2623 0.6 22.5823 0.6ZM43.6911 0.799999V4.22H39.5711V14H34.9111V4.22H30.7711V0.799999H43.6911ZM53.842 0.799999C55.562 0.799999 56.882 1.18667 57.802 1.96C58.722 2.72 59.182 3.73333 59.182 5C59.182 6.45333 58.7287 7.54667 57.822 8.28C56.9287 9.01333 55.622 9.38 53.902 9.38L53.442 9.62H51.242V14H46.682V0.799999H53.842ZM53.042 6.56C53.5354 6.56 53.902 6.47333 54.142 6.3C54.3954 6.11333 54.522 5.79333 54.522 5.34C54.522 4.9 54.3954 4.58667 54.142 4.4C53.902 4.21333 53.5354 4.12 53.042 4.12H51.242V6.56H53.042ZM55.802 7.54L59.922 14H54.862L51.782 8.22L55.802 7.54ZM68.5469 0.6C69.9469 0.6 71.1469 0.866666 72.1469 1.4C73.1469 1.93333 73.9135 2.70667 74.4469 3.72C74.9802 4.73333 75.2469 5.96 75.2469 7.4C75.2469 8.84 74.9802 10.0667 74.4469 11.08C73.9135 12.0933 73.1469 12.8667 72.1469 13.4C71.1469 13.9333 69.9469 14.2 68.5469 14.2C67.1602 14.2 65.9602 13.9333 64.9469 13.4C63.9469 12.8667 63.1735 12.0933 62.6269 11.08C62.0935 10.0667 61.8269 8.84 61.8269 7.4C61.8269 5.96 62.0935 4.73333 62.6269 3.72C63.1735 2.70667 63.9469 1.93333 64.9469 1.4C65.9602 0.866666 67.1602 0.6 68.5469 0.6ZM68.5469 4.1C68.0935 4.1 67.7202 4.22 67.4269 4.46C67.1469 4.68667 66.9335 5.04 66.7869 5.52C66.6535 6 66.5869 6.62667 66.5869 7.4C66.5869 8.16 66.6535 8.78667 66.7869 9.28C66.9335 9.76 67.1469 10.12 67.4269 10.36C67.7202 10.5867 68.0935 10.7 68.5469 10.7C69.0002 10.7 69.3669 10.5867 69.6469 10.36C69.9402 10.12 70.1535 9.76 70.2869 9.28C70.4202 8.78667 70.4869 8.16 70.4869 7.4C70.4869 6.62667 70.4202 6 70.2869 5.52C70.1535 5.04 69.9402 4.68667 69.6469 4.46C69.3669 4.22 69.0002 4.1 68.5469 4.1ZM88.1572 18.18C87.1439 18.18 86.2772 18.02 85.5572 17.7C84.8505 17.38 84.3105 16.9533 83.9372 16.42C83.5772 15.8867 83.3972 15.2933 83.3972 14.64C83.3972 14.2667 83.4572 13.8867 83.5772 13.5C83.6972 13.1 83.8839 12.7067 84.1372 12.32L86.5372 11.54C86.3105 11.94 86.1439 12.3067 86.0372 12.64C85.9305 12.96 85.8772 13.2467 85.8772 13.5C85.8772 13.8733 85.9772 14.1733 86.1772 14.4C86.3772 14.6267 86.6439 14.7933 86.9772 14.9C87.3239 15.0067 87.7239 15.06 88.1772 15.06C88.8039 15.06 89.3039 15 89.6772 14.88C90.0505 14.76 90.3705 14.6 90.6372 14.4L91.1372 17.38C90.7772 17.6333 90.3305 17.8267 89.7972 17.96C89.2639 18.1067 88.7172 18.18 88.1572 18.18ZM84.7172 0.6C86.1172 0.6 87.3172 0.866666 88.3172 1.4C89.3172 1.93333 90.0839 2.70667 90.6172 3.72C91.1505 4.73333 91.4172 5.96 91.4172 7.4C91.4172 8.84 91.1505 10.0667 90.6172 11.08C90.0839 12.0933 89.3172 12.8667 88.3172 13.4C87.3172 13.9333 86.1172 14.2 84.7172 14.2C83.3305 14.2 82.1305 13.9333 81.1172 13.4C80.1172 12.8667 79.3439 12.0933 78.7972 11.08C78.2639 10.0667 77.9972 8.84 77.9972 7.4C77.9972 5.96 78.2639 4.73333 78.7972 3.72C79.3439 2.70667 80.1172 1.93333 81.1172 1.4C82.1305 0.866666 83.3305 0.6 84.7172 0.6ZM84.7172 4.1C84.2639 4.1 83.8905 4.22 83.5972 4.46C83.3172 4.68667 83.1039 5.04 82.9572 5.52C82.8239 6 82.7572 6.62667 82.7572 7.4C82.7572 8.16 82.8239 8.78667 82.9572 9.28C83.1039 9.76 83.3172 10.12 83.5972 10.36C83.8905 10.5867 84.2639 10.7 84.7172 10.7C85.1705 10.7 85.5372 10.5867 85.8172 10.36C86.1105 10.12 86.3239 9.76 86.4572 9.28C86.5905 8.78667 86.6572 8.16 86.6572 7.4C86.6572 6.62667 86.5905 6 86.4572 5.52C86.3239 5.04 86.1105 4.68667 85.8172 4.46C85.5372 4.22 85.1705 4.1 84.7172 4.1ZM107.088 0.799999V8.32C107.088 10.2933 106.554 11.7667 105.488 12.74C104.434 13.7133 102.841 14.2 100.708 14.2C98.5742 14.2 96.9742 13.7133 95.9075 12.74C94.8542 11.7667 94.3275 10.2933 94.3275 8.32V0.799999H99.0075V8.68C99.0075 9.34667 99.1542 9.85333 99.4475 10.2C99.7408 10.5333 100.161 10.7 100.708 10.7C101.268 10.7 101.694 10.5333 101.988 10.2C102.281 9.85333 102.428 9.34667 102.428 8.68V0.799999H107.088ZM110.426 14V0.799999H121.386V4.22H115.086V5.86H120.166V9.02H115.086V10.58H121.626V14H110.426ZM124.545 14V0.799999H135.505V4.22H129.205V5.86H134.285V9.02H129.205V10.58H135.745V14H124.545ZM151.585 0.799999V14H146.545L143.385 8L142.665 6.38H142.625L142.705 9.1V14H138.665V0.799999H143.705L146.865 6.82L147.585 8.42H147.625L147.545 5.7V0.799999H151.585Z" fill="#272727"/>
</svg>
