<svg width="274" height="33" viewBox="0 0 274 33" fill="none" xmlns="http://www.w3.org/2000/svg">
<path d="M26.2079 25H17.6399L16.5599 20.464H10.1519L9.0359 25H0.6839L8.3879 1.24H18.4679L26.2079 25ZM11.4119 15.244H15.3359L13.3919 7L11.4119 15.244ZM40.9482 0.879999C43.2282 0.879999 45.2682 1.168 47.0682 1.744C48.8922 2.296 50.5002 3.136 51.8922 4.264L48.5082 9.664C47.3802 8.872 46.1922 8.236 44.9442 7.756C43.7202 7.276 42.3882 7.036 40.9482 7.036C40.3242 7.036 39.8202 7.084 39.4362 7.18C39.0762 7.276 38.8122 7.408 38.6442 7.576C38.5002 7.744 38.4282 7.936 38.4282 8.152C38.4282 8.44 38.6442 8.656 39.0762 8.8C39.5322 8.944 40.0962 9.1 40.7682 9.268L44.0442 10.024C46.4682 10.576 48.2922 11.392 49.5162 12.472C50.7642 13.552 51.3882 15.052 51.3882 16.972C51.3882 18.892 50.9202 20.476 49.9842 21.724C49.0482 22.948 47.7762 23.86 46.1682 24.46C44.5842 25.06 42.7842 25.36 40.7682 25.36C39.2562 25.36 37.7442 25.228 36.2322 24.964C34.7202 24.676 33.3162 24.268 32.0202 23.74C30.7242 23.188 29.6082 22.528 28.6722 21.76L31.9842 16.252C32.6802 16.804 33.5202 17.308 34.5042 17.764C35.4882 18.196 36.5082 18.544 37.5642 18.808C38.6202 19.072 39.6042 19.204 40.5162 19.204C41.0922 19.204 41.5482 19.156 41.8842 19.06C42.2202 18.964 42.4482 18.844 42.5682 18.7C42.7122 18.532 42.7842 18.34 42.7842 18.124C42.7842 17.788 42.6402 17.536 42.3522 17.368C42.0882 17.2 41.5962 17.032 40.8762 16.864L37.2762 16.072C36.0042 15.784 34.7922 15.4 33.6402 14.92C32.4882 14.44 31.5522 13.744 30.8322 12.832C30.1122 11.896 29.7522 10.636 29.7522 9.052C29.7522 7.42 30.1842 5.992 31.0482 4.768C31.9362 3.544 33.2082 2.596 34.8642 1.924C36.5442 1.228 38.5722 0.879999 40.9482 0.879999ZM78.944 1.24V7.396H71.528V25H63.14V7.396H55.688V1.24H78.944ZM97.2156 1.24C100.312 1.24 102.688 1.936 104.344 3.328C106 4.696 106.828 6.52 106.828 8.8C106.828 11.416 106.012 13.384 104.38 14.704C102.772 16.024 100.42 16.684 97.3236 16.684L96.4956 17.116H92.5356V25H84.3276V1.24H97.2156ZM95.7757 11.608C96.6637 11.608 97.3236 11.452 97.7556 11.14C98.2116 10.804 98.4397 10.228 98.4397 9.412C98.4397 8.62 98.2116 8.056 97.7556 7.72C97.3236 7.384 96.6637 7.216 95.7757 7.216H92.5356V11.608H95.7757ZM100.744 13.372L108.16 25H99.0516L93.5076 14.596L100.744 13.372ZM123.684 0.879999C126.204 0.879999 128.364 1.36 130.164 2.32C131.964 3.28 133.344 4.672 134.304 6.496C135.264 8.32 135.744 10.528 135.744 13.12C135.744 15.712 135.264 17.92 134.304 19.744C133.344 21.568 131.964 22.96 130.164 23.92C128.364 24.88 126.204 25.36 123.684 25.36C121.188 25.36 119.028 24.88 117.204 23.92C115.404 22.96 114.012 21.568 113.028 19.744C112.068 17.92 111.588 15.712 111.588 13.12C111.588 10.528 112.068 8.32 113.028 6.496C114.012 4.672 115.404 3.28 117.204 2.32C119.028 1.36 121.188 0.879999 123.684 0.879999ZM123.684 7.18C122.868 7.18 122.196 7.396 121.668 7.828C121.164 8.236 120.78 8.872 120.516 9.736C120.276 10.6 120.156 11.728 120.156 13.12C120.156 14.488 120.276 15.616 120.516 16.504C120.78 17.368 121.164 18.016 121.668 18.448C122.196 18.856 122.868 19.06 123.684 19.06C124.5 19.06 125.16 18.856 125.664 18.448C126.192 18.016 126.576 17.368 126.816 16.504C127.056 15.616 127.176 14.488 127.176 13.12C127.176 11.728 127.056 10.6 126.816 9.736C126.576 8.872 126.192 8.236 125.664 7.828C125.16 7.396 124.5 7.18 123.684 7.18ZM158.983 32.524C157.159 32.524 155.599 32.236 154.303 31.66C153.031 31.084 152.059 30.316 151.387 29.356C150.739 28.396 150.415 27.328 150.415 26.152C150.415 25.48 150.523 24.796 150.739 24.1C150.955 23.38 151.291 22.672 151.747 21.976L156.067 20.572C155.659 21.292 155.359 21.952 155.167 22.552C154.975 23.128 154.879 23.644 154.879 24.1C154.879 24.772 155.059 25.312 155.419 25.72C155.779 26.128 156.259 26.428 156.859 26.62C157.483 26.812 158.203 26.908 159.019 26.908C160.147 26.908 161.047 26.8 161.719 26.584C162.391 26.368 162.967 26.08 163.447 25.72L164.347 31.084C163.699 31.54 162.895 31.888 161.935 32.128C160.975 32.392 159.991 32.524 158.983 32.524ZM152.791 0.879999C155.311 0.879999 157.471 1.36 159.271 2.32C161.071 3.28 162.451 4.672 163.411 6.496C164.371 8.32 164.851 10.528 164.851 13.12C164.851 15.712 164.371 17.92 163.411 19.744C162.451 21.568 161.071 22.96 159.271 23.92C157.471 24.88 155.311 25.36 152.791 25.36C150.295 25.36 148.135 24.88 146.311 23.92C144.511 22.96 143.119 21.568 142.135 19.744C141.175 17.92 140.695 15.712 140.695 13.12C140.695 10.528 141.175 8.32 142.135 6.496C143.119 4.672 144.511 3.28 146.311 2.32C148.135 1.36 150.295 0.879999 152.791 0.879999ZM152.791 7.18C151.975 7.18 151.303 7.396 150.775 7.828C150.271 8.236 149.887 8.872 149.623 9.736C149.383 10.6 149.263 11.728 149.263 13.12C149.263 14.488 149.383 15.616 149.623 16.504C149.887 17.368 150.271 18.016 150.775 18.448C151.303 18.856 151.975 19.06 152.791 19.06C153.607 19.06 154.267 18.856 154.771 18.448C155.299 18.016 155.683 17.368 155.923 16.504C156.163 15.616 156.283 14.488 156.283 13.12C156.283 11.728 156.163 10.6 155.923 9.736C155.683 8.872 155.299 8.236 154.771 7.828C154.267 7.396 153.607 7.18 152.791 7.18ZM193.057 1.24V14.776C193.057 18.328 192.097 20.98 190.177 22.732C188.281 24.484 185.413 25.36 181.573 25.36C177.733 25.36 174.853 24.484 172.933 22.732C171.037 20.98 170.089 18.328 170.089 14.776V1.24H178.513V15.424C178.513 16.624 178.777 17.536 179.305 18.16C179.833 18.76 180.589 19.06 181.573 19.06C182.581 19.06 183.349 18.76 183.877 18.16C184.405 17.536 184.669 16.624 184.669 15.424V1.24H193.057ZM199.066 25V1.24H218.794V7.396H207.454V10.348H216.598V16.036H207.454V18.844H219.226V25H199.066ZM224.482 25V1.24H244.21V7.396H232.87V10.348H242.014V16.036H232.87V18.844H244.642V25H224.482ZM273.153 1.24V25H264.081L258.393 14.2L257.097 11.284H257.025L257.169 16.18V25H249.897V1.24H258.969L264.657 12.076L265.953 14.956H266.025L265.881 10.06V1.24H273.153Z" fill="#FDF6F0"/>
</svg>
