<svg width="61" height="61" viewBox="0 0 61 61" fill="none" xmlns="http://www.w3.org/2000/svg">
<path fill-rule="evenodd" clip-rule="evenodd" d="M54.8575 48.8541C64.9943 35.4021 62.3068 16.2796 48.8548 6.14276C35.4028 -3.99404 16.2803 -1.30655 6.1435 12.1454C-3.99331 25.5974 -1.30582 44.7199 12.1462 54.8567C25.5982 64.9935 44.7207 62.3061 54.8575 48.8541ZM54.3703 48.487C44.4363 61.6699 25.6962 64.3037 12.5133 54.3696C-0.669692 44.4355 -3.30343 25.6955 6.63064 12.5125C16.5647 -0.670424 35.3048 -3.30417 48.4877 6.6299C61.6707 16.564 64.3044 35.304 54.3703 48.487ZM40.1525 30.1142L40.6525 30.4029L40.1525 30.6916L25.9033 38.9183L25.4033 39.207V38.6296V22.1762V21.5988L25.9033 21.8875L40.1525 30.1142ZM25.9033 22.4648L39.6525 30.4029L25.9033 38.341V22.4648Z" fill="white"/>
</svg>
